FFmpeg version 0.6.5, Copyright (c) 2000-2010 the FFmpeg developers
  built on Jan 29 2012 17:52:15 with gcc 4.4.5 20110214 (Red Hat 4.4.5-6)
  configuration: --prefix=/usr --libdir=/usr/lib64 --shlibdir=/usr/lib64 --mandir=/usr/share/man --incdir=/usr/include --disable-avisynth --extra-cflags='-O2 -g -pipe -Wall -Wp,-D_FORTIFY_SOURCE=2 -fexceptions -fstack-protector --param=ssp-buffer-size=4 -m64 -mtune=generic -fPIC' --enable-avfilter --enable-avfilter-lavf --enable-libdc1394 --enable-libdirac --enable-libfaac --enable-libfaad --enable-libfaadbin --enable-libgsm --enable-libmp3lame --enable-libopencore-amrnb --enable-libopencore-amrwb --enable-librtmp --enable-libschroedinger --enable-libspeex --enable-libtheora --enable-libx264 --enable-gpl --enable-nonfree --enable-postproc --enable-pthreads --enable-shared --enable-swscale --enable-vdpau --enable-version3 --enable-x11grab
  libavutil     50.15. 1 / 50.15. 1
  libavcodec    52.72. 2 / 52.72. 2
  libavformat   52.64. 2 / 52.64. 2
  libavdevice   52. 2. 0 / 52. 2. 0
  libavfilter    1.19. 0 /  1.19. 0
  libswscale     0.11. 0 /  0.11. 0
  libpostproc   51. 2. 0 / 51. 2. 0

Seems stream 0 codec frame rate differs from container frame rate: 180000.00 (180000/1) -> 90000.00 (180000/2)
Input #0, mov,mp4,m4a,3gp,3g2,mj2, from '/tmp/tmp':
  Metadata:
    major_brand     : isom
    minor_version   : 0
    compatible_brands: isom3gp4
  Duration: 00:00:03.60, start: 0.000000, bitrate: 598 kb/s
    Stream #0.0(eng): Video: h264, yuv420p, 640x480, 707 kb/s, PAR 65536:65536 DAR 4:3, 25 fps, 90k tbr, 90k tbn, 180k tbc
    Stream #0.1(eng): Audio: amrnb, 8000 Hz, 1 channels, flt, 12 kb/s
WARNING: The bitrate parameter is set too low. It takes bits/s as argument, not kbits/s
WARNING: The bitrate parameter is set too low. It takes bits/s as argument, not kbits/s
[flv @ 0x10dad90]removing common factors from framerate
Output #0, flv, to '/tmp/tmp.flv':
  Metadata:
    encoder         : Lavf52.64.2
    Stream #0.0(eng): Video: flv, yuv420p, 320x240 [PAR 1:1 DAR 4:3], q=2-31, 0 kb/s, 1k tbn, 90k tbc
    Stream #0.1(eng): Audio: libmp3lame, 22050 Hz, 1 channels, s16, 0 kb/s
Stream mapping:
  Stream #0.0 -> #0.0
  Stream #0.1 -> #0.1
Press [q] to stop encoding
Warning, using s16 intermediate sample format for resampling
Multiple frames in a packet from stream 1
frame=   73 fps=  0 q=1.0 Lsize=     666kB time=2.88 bitrate=1894.4kbits/s    
video:648kB audio:14kB global headers:0kB muxing overhead 0.546084%
